# xmcd
#
# Track frame offsets: 
#        150
#        12884
#        25516
#        37758
#        49023
#        58445
#        72530
#        85665
#        95706
#        107036
#        121379
#        133994
#        146081
#        158207
#        171568
#        183350
#        196364
#        205991
#        217138
#        229990
#        244273
#        255192
#        268241
#        281556
#        293526
#
# Disc length: 4084 seconds
#
# Revision: 0
# Processed by: cddbd v1.5.2PL0 Copyright (c) Steve Scherf et al.
# Submitted via: ExactAudioCopy v0.99pb4
#
DISCID=800ff219
DTITLE=Various Artist - Lemon Popsicles And Strawberry Milkshakes: Let The Go
DTITLE=od Times Roll CD3
DYEAR=2011
DGENRE=Rock and Roll
TTITLE0=Big Mama Thornton - Hound Dog
TTITLE1=Jackie Brenston - Rocket 88
TTITLE2=Wynonie Harris - Good Rockin' Tonight
TTITLE3=Billy Ward and The Dominoes - Sixty Minute Man
TTITLE4=Orioles - Hold Me! Squeeze Me!
TTITLE5=Five Keys - The Glory Of Love
TTITLE6=Percy Mayfield - Lost Love
TTITLE7=Chuck Willis - Loud Mouth Lucy
TTITLE8=Lloyd Price - Lawdy Miss Clawdy
TTITLE9=Roy Milton - So Tired
TTITLE10=Prisonaires - Just Walkin' In The Rain
TTITLE11=Fats Domino - Please Don't Leave Me
TTITLE12=Smiley Lewis - Blue Monday
TTITLE13=Robins - Riot In Cell Block No. 9
TTITLE14=Jewels - Hearts Of Stone
TTITLE15=Cadillacs - Gloria
TTITLE16=T-Bone Walker - Party Girl
TTITLE17=Clovers - One Mint Julep
TTITLE18=Cardinals - Wheel Of Fortune
TTITLE19=Lavern Baker - Tweedle Dee
TTITLE20=Chords - Sh-Boom
TTITLE21=Ruth Brown - Mama He Treats Your Daughter Mean
TTITLE22=Drifters - Money Honey
TTITLE23=Big Joe Turner - Honey Hush
TTITLE24=Ray Charles - I Got A Woman
EXTD=
EXTT0=
EXTT1=
EXTT2=
EXTT3=
EXTT4=
EXTT5=
EXTT6=
EXTT7=
EXTT8=
EXTT9=
EXTT10=
EXTT11=
EXTT12=
EXTT13=
EXTT14=
EXTT15=
EXTT16=
EXTT17=
EXTT18=
EXTT19=
EXTT20=
EXTT21=
EXTT22=
EXTT23=
EXTT24=
PLAYORDER=
